<?xml version="1.0" encoding="utf-8"?>
<svg version="1.1" id="Layer_1" xmlns="http://www.w3.org/2000/svg" xmlns:xlink="http://www.w3.org/1999/xlink" x="0px" y="0px"
	 viewBox="0 0 612 792" style="enable-background:new 0 0 612 792;" xml:space="preserve">
	 <style type="text/css">
		 .st0{fill:#F1F2F2;} <!-- This is for Default Fill -->
		 .st1{fill:#7E7E7E;} <!-- This is the Default Text -->
	 </style>
<g id="State_Tile">
	<rect id="AK" x="7" y="11" class="st0" width="40" height="40"/>
	<rect id="AL" x="310" y="269" class="st0" width="40" height="40"/>
	<rect id="AR" x="224" y="226" class="st0" width="40" height="40"/>
	<rect id="AZ" x="94" y="226" class="st0" width="40" height="40"/>
	<rect id="CA" x="51" y="183" class="st0" width="40" height="40"/>
	<rect id="CO" x="137" y="183" class="st0" width="40" height="40"/>
	<rect id="CT" x="440" y="140" class="st0" width="40" height="40"/>
	<rect id="DC" x="397" y="226" class="st0" width="40" height="40"/>
	<rect id="DE" x="440" y="183" class="st0" width="40" height="40"/>
	<rect id="FL" x="397" y="312" class="st0" width="40" height="40"/>
	<rect id="GA" x="353" y="269" class="st0" width="40" height="40"/>
	<rect id="HI" x="7" y="312" class="st0" width="40" height="40"/>
	<rect id="IA" x="224" y="140" class="st0" width="40" height="40"/>
	<rect id="ID" x="94" y="96" class="st0" width="40" height="40"/>
	<rect id="IL" x="267" y="96" class="st0" width="40" height="40"/>
	<rect id="IN" x="267" y="140" class="st0" width="40" height="40"/>
	<rect id="KS" x="180" y="226" class="st0" width="40" height="40"/>
	<rect id="KY" x="267" y="183" class="st0" width="40" height="40"/>
	<rect id="LA" x="224" y="269" class="st0" width="40" height="40"/>
	<rect id="MA" x="483" y="96" class="st0" width="40" height="40"/>
	<rect id="MD" x="397" y="183" class="st0" width="40" height="40"/>
	<rect id="ME" x="483" y="11" class="st0" width="40" height="40"/>
	<rect id="MI" x="353" y="96" class="st0" width="40" height="40"/>
	<rect id="MN" x="224" y="96" class="st0" width="40" height="40"/>
	<rect id="MO" x="224" y="183" class="st0" width="40" height="40"/>
	<rect id="MS" x="267" y="269" class="st0" width="40" height="40"/>
	<rect id="MT" x="137" y="96" class="st0" width="40" height="40"/>
	<rect id="NC" x="310" y="226" class="st0" width="40" height="40"/>
	<rect id="ND" x="180" y="96" class="st0" width="40" height="40"/>
	<rect id="NE" x="180" y="183" class="st0" width="40" height="40"/>
	<rect id="NH" x="483" y="54" class="st0" width="40" height="40"/>
	<rect id="NJ" x="397" y="140" class="st0" width="40" height="40"/>
	<rect id="NM" x="137" y="226" class="st0" width="40" height="40"/>
	<rect id="NV" x="94" y="140" class="st0" width="40" height="40"/>
	<rect id="NY" x="397" y="96" class="st0" width="40" height="40"/>
	<rect id="OH" x="310" y="140" class="st0" width="40" height="40"/>
	<rect id="OK" x="180" y="269" class="st0" width="40" height="40"/>
	<rect id="OR" x="51" y="140" class="st0" width="40" height="40"/>
	<rect id="PA" x="353" y="140" class="st0" width="40" height="40"/>
	<rect id="RI" x="440" y="96" class="st0" width="40" height="40"/>
	<rect id="SC" x="353" y="226" class="st0" width="40" height="40"/>
	<rect id="SD" x="180" y="140" class="st0" width="40" height="40"/>
	<rect id="TN" x="267" y="226" class="st0" width="40" height="40"/>
	<rect id="TX" x="180" y="312" class="st0" width="40" height="40"/>
	<rect id="UT" x="94" y="183" class="st0" width="40" height="40"/>
	<rect id="VA" x="353" y="183" class="st0" width="40" height="40"/>
	<rect id="VT" x="440" y="54" class="st0" width="40" height="40"/>
	<rect id="WA" x="51" y="96" class="st0" width="40" height="40"/>
	<rect id="WI" x="310" y="96" class="st0" width="40" height="40"/>
	<rect id="WV" x="310" y="183" class="st0" width="40" height="40"/>
	<rect id="WY" x="137" y="140" class="st0" width="40" height="40"/>
</g>
<g id="State_Labels">
	<g id="XMLID_2_">
		<g id="XMLID_173_">
			<path id="XMLID_330_" class="st1" d="M59.7,112.5h1.2c0.1,0,0.2,0,0.3,0.1c0.1,0.1,0.1,0.1,0.2,0.2l1.6,5.6
				c0,0.1,0.1,0.3,0.1,0.4s0.1,0.3,0.1,0.4c0-0.2,0.1-0.3,0.1-0.4c0-0.1,0.1-0.3,0.1-0.4l1.9-5.6c0-0.1,0.1-0.2,0.2-0.2
				s0.2-0.1,0.3-0.1h0.4c0.1,0,0.2,0,0.3,0.1c0.1,0.1,0.1,0.1,0.2,0.2l1.9,5.6c0,0.1,0.1,0.2,0.1,0.4c0,0.1,0.1,0.3,0.1,0.4
				c0-0.2,0.1-0.3,0.1-0.4c0-0.1,0.1-0.3,0.1-0.4l1.6-5.6c0-0.1,0.1-0.2,0.2-0.2c0.1-0.1,0.2-0.1,0.3-0.1h1.1l-2.7,8.8h-1.3
				l-2.1-6.3c0-0.1,0-0.1-0.1-0.2c0-0.1,0-0.2-0.1-0.3c0,0.1,0,0.2-0.1,0.3c0,0.1,0,0.2-0.1,0.2l-2.1,6.3h-1.3L59.7,112.5z"/>
			<path id="XMLID_332_" class="st1" d="M80.6,121.2h-1.1c-0.1,0-0.2,0-0.3-0.1s-0.1-0.1-0.2-0.2l-0.7-1.9h-3.8l-0.7,1.9
				c0,0.1-0.1,0.2-0.2,0.2c-0.1,0.1-0.2,0.1-0.3,0.1h-1.1l3.5-8.8h1.4L80.6,121.2z M74.9,117.9h3l-1.2-3.2c0-0.1-0.1-0.3-0.1-0.4
				c-0.1-0.2-0.1-0.3-0.1-0.5c0,0.2-0.1,0.4-0.1,0.5s-0.1,0.3-0.1,0.4L74.9,117.9z"/>
		</g>
		<g id="XMLID_172_">
			<path id="XMLID_325_" class="st1" d="M109.6,121.2h-1.4v-8.8h1.4V121.2z"/>
			<path id="XMLID_327_" class="st1" d="M119.4,116.8c0,0.6-0.1,1.2-0.3,1.8s-0.5,1-0.9,1.4s-0.8,0.7-1.4,0.9
				c-0.5,0.2-1.1,0.3-1.8,0.3h-3.3v-8.8h3.3c0.7,0,1.3,0.1,1.8,0.3c0.5,0.2,1,0.5,1.4,0.9c0.4,0.4,0.7,0.8,0.9,1.4
				S119.4,116.2,119.4,116.8z M118,116.8c0-0.5-0.1-1-0.2-1.4s-0.3-0.7-0.6-1c-0.3-0.3-0.6-0.5-0.9-0.6c-0.4-0.1-0.8-0.2-1.2-0.2
				h-1.9v6.5h1.9c0.4,0,0.9-0.1,1.2-0.2c0.4-0.1,0.7-0.4,0.9-0.6s0.4-0.6,0.6-1S118,117.3,118,116.8z"/>
		</g>
		<g id="XMLID_171_">
			<path id="XMLID_321_" class="st1" d="M152.1,118.1c0.1,0.1,0.1,0.3,0.2,0.4c0-0.1,0.1-0.3,0.2-0.4c0.1-0.1,0.1-0.3,0.2-0.4
				l2.8-5.1c0.1-0.1,0.1-0.2,0.2-0.2s0.2,0,0.3,0h1.1v8.8h-1.3v-6c0-0.1,0-0.2,0-0.3c0-0.1,0-0.2,0-0.3l-2.8,5.2
				c-0.1,0.2-0.3,0.3-0.5,0.3h-0.2c-0.2,0-0.4-0.1-0.5-0.3l-2.9-5.2c0,0.1,0,0.2,0,0.4c0,0.1,0,0.2,0,0.3v6h-1.3v-8.8h1.1
				c0.1,0,0.2,0,0.3,0c0.1,0,0.1,0.1,0.2,0.2l2.8,5.1C152,117.9,152,118,152.1,118.1z"/>
			<path id="XMLID_323_" class="st1" d="M165,112.5v1.2h-2.7v7.6h-1.4v-7.6h-2.7v-1.2H165z"/>
		</g>
		<g id="XMLID_170_">
			<path id="XMLID_316_" class="st1" d="M192.6,112.5c0,0,0.1,0,0.1,0s0.1,0,0.1,0.1c0,0,0.1,0.1,0.1,0.1l4.8,6.2c0-0.1,0-0.3,0-0.4
				c0-0.1,0-0.2,0-0.3v-5.7h1.2v8.8h-0.7c-0.1,0-0.2,0-0.3-0.1s-0.1-0.1-0.2-0.2l-4.8-6.2c0,0.1,0,0.2,0,0.3s0,0.2,0,0.3v5.8h-1.3
				v-8.8h0.7C192.5,112.5,192.6,112.5,192.6,112.5z"/>
			<path id="XMLID_318_" class="st1" d="M208.6,116.8c0,0.6-0.1,1.2-0.3,1.8s-0.5,1-0.9,1.4s-0.8,0.7-1.4,0.9
				c-0.5,0.2-1.1,0.3-1.8,0.3h-3.3v-8.8h3.3c0.7,0,1.3,0.1,1.8,0.3c0.5,0.2,1,0.5,1.4,0.9c0.4,0.4,0.7,0.8,0.9,1.4
				S208.6,116.2,208.6,116.8z M207.1,116.8c0-0.5-0.1-1-0.2-1.4s-0.3-0.7-0.6-1c-0.3-0.3-0.6-0.5-0.9-0.6c-0.4-0.1-0.8-0.2-1.2-0.2
				h-1.9v6.5h1.9c0.4,0,0.9-0.1,1.2-0.2c0.4-0.1,0.7-0.4,0.9-0.6s0.4-0.6,0.6-1S207.1,117.3,207.1,116.8z"/>
		</g>
		<g id="XMLID_159_">
			<path id="XMLID_310_" class="st1" d="M70.6,159.1c0,0.6-0.1,1.2-0.3,1.8s-0.5,1-0.9,1.4c-0.4,0.4-0.8,0.7-1.4,0.9
				c-0.5,0.2-1.1,0.3-1.8,0.3c-0.7,0-1.2-0.1-1.8-0.3c-0.5-0.2-1-0.5-1.4-0.9s-0.7-0.9-0.9-1.4s-0.3-1.1-0.3-1.8s0.1-1.2,0.3-1.8
				c0.2-0.5,0.5-1,0.9-1.4c0.4-0.4,0.8-0.7,1.4-0.9c0.5-0.2,1.1-0.3,1.8-0.3c0.7,0,1.3,0.1,1.8,0.3c0.5,0.2,1,0.5,1.4,0.9
				c0.4,0.4,0.7,0.9,0.9,1.4C70.5,157.9,70.6,158.5,70.6,159.1z M69.1,159.1c0-0.5-0.1-1-0.2-1.4c-0.1-0.4-0.3-0.7-0.6-1
				c-0.3-0.3-0.6-0.5-0.9-0.6c-0.4-0.1-0.8-0.2-1.2-0.2c-0.4,0-0.8,0.1-1.2,0.2c-0.4,0.1-0.7,0.4-0.9,0.6c-0.3,0.3-0.5,0.6-0.6,1
				s-0.2,0.9-0.2,1.4c0,0.5,0.1,1,0.2,1.4s0.3,0.7,0.6,1c0.3,0.3,0.6,0.5,0.9,0.6c0.4,0.1,0.8,0.2,1.2,0.2c0.4,0,0.9-0.1,1.2-0.2
				s0.7-0.4,0.9-0.6s0.4-0.6,0.6-1C69.1,160.1,69.1,159.6,69.1,159.1z"/>
			<path id="XMLID_313_" class="st1" d="M73.6,160v3.5h-1.4v-8.8h2.6c0.6,0,1.1,0.1,1.5,0.2c0.4,0.1,0.8,0.3,1,0.5s0.5,0.5,0.6,0.8
				c0.1,0.3,0.2,0.6,0.2,1c0,0.3,0,0.6-0.1,0.9c-0.1,0.3-0.2,0.5-0.4,0.7c-0.2,0.2-0.4,0.4-0.6,0.6s-0.5,0.3-0.9,0.4
				c0.2,0.1,0.3,0.3,0.5,0.4l2.4,3.3h-1.3c-0.3,0-0.4-0.1-0.5-0.3l-2-3c-0.1-0.1-0.1-0.2-0.2-0.2c-0.1,0-0.2-0.1-0.4-0.1L73.6,160
				L73.6,160z M73.6,158.9h1.1c0.3,0,0.6,0,0.9-0.1c0.2-0.1,0.4-0.2,0.6-0.3s0.3-0.3,0.4-0.5c0.1-0.2,0.1-0.4,0.1-0.7
				c0-0.5-0.2-0.8-0.5-1.1s-0.8-0.4-1.4-0.4h-1.2L73.6,158.9L73.6,158.9z"/>
		</g>
		<g id="XMLID_158_">
			<path id="XMLID_306_" class="st1" d="M106.7,154.7c0,0,0.1,0,0.1,0s0.1,0,0.1,0.1c0,0,0.1,0.1,0.1,0.1l4.8,6.2c0-0.1,0-0.3,0-0.4
				c0-0.1,0-0.2,0-0.3v-5.7h1.2v8.8h-0.7c-0.1,0-0.2,0-0.3-0.1s-0.2-0.1-0.2-0.2l-4.8-6.2c0,0.1,0,0.2,0,0.4c0,0.1,0,0.2,0,0.3v5.8
				h-1.3v-8.8h0.7C106.6,154.7,106.7,154.7,106.7,154.7z"/>
			<path id="XMLID_308_" class="st1" d="M113.9,154.7h1.1c0.1,0,0.2,0,0.3,0.1s0.1,0.1,0.2,0.2l2.3,5.7c0.1,0.2,0.1,0.3,0.2,0.5
				c0.1,0.2,0.1,0.4,0.2,0.6c0-0.2,0.1-0.4,0.1-0.6c0.1-0.2,0.1-0.4,0.2-0.5l2.3-5.7c0-0.1,0.1-0.2,0.2-0.2s0.2-0.1,0.3-0.1h1.1
				l-3.6,8.8h-1.3L113.9,154.7z"/>
		</g>
		<g id="XMLID_157_">
			<path id="XMLID_302_" class="st1" d="M145.7,154.7h1.2c0.1,0,0.2,0,0.3,0.1c0.1,0.1,0.1,0.1,0.2,0.2l1.6,5.6
				c0,0.1,0.1,0.3,0.1,0.4s0.1,0.3,0.1,0.4c0-0.2,0.1-0.3,0.1-0.4c0-0.1,0.1-0.3,0.1-0.4l1.9-5.6c0-0.1,0.1-0.2,0.2-0.2
				c0.1-0.1,0.2-0.1,0.3-0.1h0.4c0.1,0,0.2,0,0.3,0.1c0.1,0.1,0.1,0.1,0.2,0.2l1.9,5.6c0,0.1,0.1,0.2,0.1,0.4c0,0.1,0.1,0.3,0.1,0.4
				c0-0.1,0.1-0.3,0.1-0.4c0-0.1,0.1-0.3,0.1-0.4l1.6-5.6c0-0.1,0.1-0.2,0.2-0.2c0.1-0.1,0.2-0.1,0.3-0.1h1.1l-2.7,8.8h-1.3
				l-2.1-6.3c0-0.1,0-0.1-0.1-0.2c0-0.1,0-0.2-0.1-0.3c0,0.1,0,0.2-0.1,0.3c0,0.1,0,0.2-0.1,0.2l-2.1,6.3h-1.3L145.7,154.7z"/>
			<path id="XMLID_304_" class="st1" d="M162.9,160.1v3.4h-1.4v-3.4l-3.2-5.3h1.2c0.1,0,0.2,0,0.3,0.1s0.1,0.1,0.2,0.2l1.8,3.1
				c0.1,0.2,0.2,0.3,0.2,0.4s0.1,0.3,0.2,0.4c0-0.1,0.1-0.3,0.2-0.4s0.1-0.3,0.2-0.4l1.8-3.1c0-0.1,0.1-0.2,0.2-0.2
				c0.1-0.1,0.2-0.1,0.3-0.1h1.3L162.9,160.1z"/>
		</g>
		<g id="XMLID_145_">
			<path id="XMLID_297_" class="st1" d="M69.1,204.8c0.1,0,0.1,0,0.2,0.1l0.6,0.6c-0.4,0.4-0.8,0.8-1.3,1c-0.5,0.2-1.1,0.4-1.9,0.4
				c-0.6,0-1.2-0.1-1.7-0.3s-1-0.5-1.3-0.9c-0.4-0.4-0.6-0.9-0.8-1.4s-0.3-1.1-0.3-1.8s0.1-1.3,0.3-1.8c0.2-0.6,0.5-1,0.9-1.4
				s0.8-0.7,1.4-0.9c0.5-0.2,1.1-0.3,1.7-0.3c0.6,0,1.2,0.1,1.7,0.3c0.5,0.2,0.9,0.5,1.3,0.8l-0.5,0.7c0,0-0.1,0.1-0.1,0.1
				c0,0-0.1,0-0.2,0c-0.1,0-0.2,0-0.3-0.1c-0.1-0.1-0.2-0.2-0.4-0.3c-0.2-0.1-0.4-0.2-0.6-0.3s-0.5-0.1-0.9-0.1
				c-0.4,0-0.8,0.1-1.2,0.2s-0.6,0.4-0.9,0.6s-0.4,0.6-0.6,1c-0.1,0.4-0.2,0.9-0.2,1.4c0,0.5,0.1,1,0.2,1.4c0.1,0.4,0.3,0.7,0.6,1
				c0.3,0.3,0.6,0.5,0.9,0.6s0.7,0.2,1.1,0.2c0.2,0,0.5,0,0.7,0c0.2,0,0.4-0.1,0.5-0.1c0.2-0.1,0.3-0.1,0.5-0.2s0.3-0.2,0.4-0.3
				C68.9,204.9,69,204.8,69.1,204.8z"/>
			<path id="XMLID_299_" class="st1" d="M78.2,206.8h-1.1c-0.1,0-0.2,0-0.3-0.1s-0.1-0.1-0.2-0.2l-0.7-1.9h-3.8l-0.7,1.9
				c0,0.1-0.1,0.2-0.2,0.2c-0.1,0.1-0.2,0.1-0.3,0.1h-1.1l3.5-8.8h1.4L78.2,206.8z M72.5,203.5h3l-1.2-3.2c0-0.1-0.1-0.3-0.1-0.4
				c-0.1-0.2-0.1-0.3-0.1-0.5c0,0.2-0.1,0.4-0.1,0.5s-0.1,0.3-0.1,0.4L72.5,203.5z"/>
		</g>
		<g id="XMLID_144_">
			<path id="XMLID_293_" class="st1" d="M110,205.6c0.3,0,0.6-0.1,0.9-0.2s0.5-0.3,0.7-0.5c0.2-0.2,0.3-0.4,0.4-0.7
				c0.1-0.3,0.1-0.6,0.1-1V198h1.4v5.3c0,0.5-0.1,1-0.2,1.4c-0.2,0.4-0.4,0.8-0.7,1.1c-0.3,0.3-0.7,0.6-1.1,0.7s-0.9,0.3-1.5,0.3
				c-0.6,0-1-0.1-1.5-0.3c-0.4-0.2-0.8-0.4-1.1-0.7s-0.5-0.7-0.7-1.1c-0.2-0.4-0.2-0.9-0.2-1.4V198h1.4v5.3c0,0.3,0,0.7,0.1,1
				c0.1,0.3,0.2,0.5,0.4,0.7c0.2,0.2,0.4,0.4,0.7,0.5S109.7,205.6,110,205.6z"/>
			<path id="XMLID_295_" class="st1" d="M121.4,198v1.2h-2.7v7.6h-1.4v-7.6h-2.7V198H121.4z"/>
		</g>
		<g id="XMLID_143_">
			<path id="XMLID_288_" class="st1" d="M154.1,204.8c0.1,0,0.1,0,0.2,0.1l0.6,0.6c-0.4,0.4-0.8,0.8-1.3,1c-0.5,0.2-1.1,0.4-1.9,0.4
				c-0.6,0-1.2-0.1-1.7-0.3s-1-0.5-1.3-0.9s-0.6-0.9-0.8-1.4s-0.3-1.1-0.3-1.8s0.1-1.3,0.3-1.8c0.2-0.6,0.5-1,0.9-1.4
				s0.8-0.7,1.4-0.9c0.5-0.2,1.1-0.3,1.7-0.3c0.6,0,1.2,0.1,1.7,0.3c0.5,0.2,0.9,0.5,1.3,0.8l-0.5,0.7c0,0-0.1,0.1-0.1,0.1
				c0,0-0.1,0-0.2,0c-0.1,0-0.2,0-0.3-0.1c-0.1-0.1-0.2-0.2-0.4-0.3c-0.2-0.1-0.4-0.2-0.6-0.3s-0.5-0.1-0.9-0.1
				c-0.4,0-0.8,0.1-1.1,0.2s-0.6,0.4-0.9,0.6s-0.4,0.6-0.6,1c-0.1,0.4-0.2,0.9-0.2,1.4c0,0.5,0.1,1,0.2,1.4s0.3,0.7,0.6,1
				c0.3,0.3,0.6,0.5,0.9,0.6s0.7,0.2,1.1,0.2c0.2,0,0.5,0,0.7,0c0.2,0,0.4-0.1,0.5-0.1c0.2-0.1,0.3-0.1,0.5-0.2s0.3-0.2,0.4-0.3
				C153.9,204.9,154,204.8,154.1,204.8z"/>
			<path id="XMLID_290_" class="st1" d="M164.2,202.4c0,0.6-0.1,1.2-0.3,1.8s-0.5,1-0.9,1.4c-0.4,0.4-0.8,0.7-1.4,0.9
				c-0.5,0.2-1.1,0.3-1.8,0.3c-0.7,0-1.2-0.1-1.8-0.3c-0.5-0.2-1-0.5-1.4-0.9c-0.4-0.4-0.7-0.9-0.9-1.4s-0.3-1.1-0.3-1.8
				s0.1-1.2,0.3-1.8c0.2-0.5,0.5-1,0.9-1.4c0.4-0.4,0.8-0.7,1.4-0.9c0.5-0.2,1.1-0.3,1.8-0.3c0.7,0,1.3,0.1,1.8,0.3
				c0.5,0.2,1,0.5,1.4,0.9c0.4,0.4,0.7,0.9,0.9,1.4C164.1,201.1,164.2,201.7,164.2,202.4z M162.7,202.4c0-0.5-0.1-1-0.2-1.4
				c-0.1-0.4-0.3-0.7-0.6-1c-0.3-0.3-0.6-0.5-0.9-0.6c-0.4-0.1-0.8-0.2-1.2-0.2c-0.4,0-0.9,0.1-1.2,0.2c-0.4,0.1-0.7,0.4-0.9,0.6
				c-0.3,0.3-0.5,0.6-0.6,1s-0.2,0.9-0.2,1.4c0,0.5,0.1,1,0.2,1.4s0.3,0.7,0.6,1c0.3,0.3,0.6,0.5,0.9,0.6c0.4,0.1,0.8,0.2,1.2,0.2
				c0.4,0,0.9-0.1,1.2-0.2s0.7-0.4,0.9-0.6s0.4-0.6,0.6-1C162.6,203.4,162.7,202.9,162.7,202.4z"/>
		</g>
		<g id="XMLID_142_">
			<path id="XMLID_284_" class="st1" d="M193.8,198c0,0,0.1,0,0.1,0s0.1,0,0.1,0.1c0,0,0.1,0.1,0.1,0.1l4.8,6.2c0-0.1,0-0.3,0-0.4
				c0-0.1,0-0.2,0-0.3V198h1.2v8.8h-0.7c-0.1,0-0.2,0-0.3-0.1s-0.1-0.1-0.2-0.2l-4.8-6.2c0,0.1,0,0.2,0,0.4c0,0.1,0,0.2,0,0.3v5.8
				h-1.3V198h0.7C193.7,198,193.7,198,193.8,198z"/>
			<path id="XMLID_286_" class="st1" d="M207.5,198v1.1h-4v2.6h3.2v1.1h-3.2v2.7h4l0,1.1H202V198L207.5,198L207.5,198z"/>
		</g>
		<g id="XMLID_202_">
			<path id="XMLID_279_" class="st1" d="M27.1,34.7H26c-0.1,0-0.2,0-0.3-0.1s-0.1-0.1-0.2-0.2l-0.7-1.9h-3.8l-0.7,1.9
				c0,0.1-0.1,0.2-0.2,0.2c-0.1,0.1-0.2,0.1-0.3,0.1h-1.1l3.5-8.8h1.4L27.1,34.7z M21.4,31.4h3l-1.2-3.2c0-0.1-0.1-0.3-0.1-0.4
				c-0.1-0.2-0.1-0.3-0.1-0.5c0,0.2-0.1,0.4-0.1,0.5s-0.1,0.3-0.1,0.4L21.4,31.4z"/>
			<path id="XMLID_282_" class="st1" d="M29.7,29.6h0.4c0.2,0,0.3,0,0.4-0.1c0.1,0,0.2-0.1,0.3-0.2l2.7-3.2c0.1-0.1,0.2-0.2,0.3-0.2
				c0.1,0,0.2-0.1,0.4-0.1h1.2l-3.1,3.7c-0.1,0.1-0.2,0.2-0.2,0.3S31.8,30,31.7,30c0.1,0,0.2,0.1,0.3,0.2c0.1,0.1,0.2,0.2,0.3,0.3
				l3.2,4.1h-1.2c-0.1,0-0.2,0-0.2,0s-0.1,0-0.2-0.1c0,0-0.1-0.1-0.1-0.1s-0.1-0.1-0.1-0.1L31,31c0-0.1-0.1-0.1-0.1-0.1
				s-0.1-0.1-0.1-0.1s-0.1,0-0.2-0.1c-0.1,0-0.1,0-0.2,0h-0.5v3.9h-1.4v-8.8h1.4L29.7,29.6L29.7,29.6z"/>
		</g>
		<g id="XMLID_156_">
			<path id="XMLID_274_" class="st1" d="M197.7,156.2c0,0.1-0.1,0.1-0.1,0.2c0,0-0.1,0.1-0.2,0.1c-0.1,0-0.2,0-0.3-0.1
				s-0.2-0.1-0.4-0.2c-0.1-0.1-0.3-0.2-0.5-0.2c-0.2-0.1-0.4-0.1-0.7-0.1c-0.2,0-0.5,0-0.6,0.1s-0.3,0.1-0.5,0.3
				c-0.1,0.1-0.2,0.2-0.3,0.4s-0.1,0.3-0.1,0.5c0,0.2,0.1,0.4,0.2,0.6s0.3,0.3,0.5,0.4c0.2,0.1,0.4,0.2,0.7,0.3
				c0.2,0.1,0.5,0.2,0.8,0.3c0.3,0.1,0.5,0.2,0.8,0.3c0.2,0.1,0.5,0.3,0.7,0.4c0.2,0.2,0.3,0.4,0.5,0.6c0.1,0.3,0.2,0.6,0.2,0.9
				c0,0.4-0.1,0.8-0.2,1.1s-0.3,0.6-0.6,0.9s-0.6,0.5-0.9,0.6s-0.8,0.2-1.3,0.2c-0.3,0-0.6,0-0.8-0.1s-0.5-0.1-0.8-0.2
				s-0.5-0.2-0.7-0.4s-0.4-0.3-0.6-0.5l0.4-0.7c0-0.1,0.1-0.1,0.1-0.1c0.1,0,0.1,0,0.2,0c0.1,0,0.2,0,0.3,0.1
				c0.1,0.1,0.3,0.2,0.4,0.3s0.4,0.2,0.6,0.3c0.2,0.1,0.5,0.1,0.8,0.1c0.5,0,0.9-0.1,1.2-0.4c0.3-0.3,0.4-0.6,0.4-1
				c0-0.2-0.1-0.4-0.2-0.6s-0.3-0.3-0.5-0.4c-0.2-0.1-0.4-0.2-0.7-0.3c-0.2-0.1-0.5-0.2-0.8-0.2c-0.3-0.1-0.5-0.2-0.8-0.3
				c-0.2-0.1-0.5-0.3-0.7-0.4s-0.3-0.4-0.5-0.7s-0.2-0.6-0.2-1c0-0.3,0.1-0.6,0.2-0.9c0.1-0.3,0.3-0.6,0.5-0.8
				c0.2-0.2,0.5-0.4,0.9-0.6s0.7-0.2,1.2-0.2c0.5,0,1,0.1,1.4,0.2c0.4,0.2,0.8,0.4,1.1,0.7L197.7,156.2z"/>
			<path id="XMLID_276_" class="st1" d="M207.2,159.1c0,0.6-0.1,1.2-0.3,1.8s-0.5,1-0.9,1.4s-0.8,0.7-1.4,0.9
				c-0.5,0.2-1.1,0.3-1.8,0.3h-3.3v-8.8h3.3c0.7,0,1.3,0.1,1.8,0.3c0.5,0.2,1,0.5,1.4,0.9c0.4,0.4,0.7,0.8,0.9,1.4
				S207.2,158.5,207.2,159.1z M205.8,159.1c0-0.5-0.1-1-0.2-1.4s-0.3-0.7-0.6-1c-0.3-0.3-0.6-0.5-0.9-0.6c-0.4-0.1-0.8-0.2-1.2-0.2
				H201v6.5h1.9c0.4,0,0.9-0.1,1.2-0.2c0.4-0.1,0.7-0.4,0.9-0.6s0.4-0.6,0.6-1S205.8,159.6,205.8,159.1z"/>
		</g>
		<g id="XMLID_155_">
			<path id="XMLID_269_" class="st1" d="M239.7,163.5h-1.4v-8.8h1.4V163.5z"/>
			<path id="XMLID_271_" class="st1" d="M249.2,163.5h-1.1c-0.1,0-0.2,0-0.3-0.1s-0.1-0.1-0.2-0.2l-0.7-1.9h-3.8l-0.7,1.9
				c0,0.1-0.1,0.2-0.2,0.2c-0.1,0.1-0.2,0.1-0.3,0.1h-1.1l3.5-8.8h1.4L249.2,163.5z M243.5,160.2h3l-1.2-3.2c0-0.1-0.1-0.3-0.1-0.4
				c-0.1-0.2-0.1-0.3-0.1-0.5c0,0.2-0.1,0.4-0.1,0.5s-0.1,0.3-0.1,0.4L243.5,160.2z"/>
		</g>
		<g id="XMLID_141_">
			<path id="XMLID_264_" class="st1" d="M238.2,203.7c0.1,0.1,0.1,0.3,0.2,0.4c0-0.1,0.1-0.3,0.2-0.4c0.1-0.1,0.1-0.3,0.2-0.4
				l2.8-5.1c0.1-0.1,0.1-0.2,0.2-0.2c0.1,0,0.2,0,0.3,0h1.1v8.8h-1.3v-6c0-0.1,0-0.2,0-0.3c0-0.1,0-0.2,0-0.3l-2.8,5.2
				c-0.1,0.2-0.3,0.3-0.5,0.3h-0.2c-0.2,0-0.4-0.1-0.5-0.3l-2.9-5.2c0,0.1,0,0.2,0,0.4c0,0.1,0,0.2,0,0.3v6h-1.3V198h1.1
				c0.1,0,0.2,0,0.3,0s0.1,0.1,0.2,0.2l2.8,5.1C238.1,203.5,238.1,203.6,238.2,203.7z"/>
			<path id="XMLID_266_" class="st1" d="M253.3,202.4c0,0.6-0.1,1.2-0.3,1.8s-0.5,1-0.9,1.4c-0.4,0.4-0.8,0.7-1.4,0.9
				c-0.5,0.2-1.1,0.3-1.8,0.3c-0.7,0-1.2-0.1-1.8-0.3c-0.5-0.2-1-0.5-1.4-0.9c-0.4-0.4-0.7-0.9-0.9-1.4s-0.3-1.1-0.3-1.8
				s0.1-1.2,0.3-1.8c0.2-0.5,0.5-1,0.9-1.4c0.4-0.4,0.8-0.7,1.4-0.9c0.5-0.2,1.1-0.3,1.8-0.3c0.7,0,1.3,0.1,1.8,0.3
				c0.5,0.2,1,0.5,1.4,0.9c0.4,0.4,0.7,0.9,0.9,1.4C253.1,201.1,253.3,201.7,253.3,202.4z M251.8,202.4c0-0.5-0.1-1-0.2-1.4
				c-0.1-0.4-0.3-0.7-0.6-1c-0.3-0.3-0.6-0.5-0.9-0.6c-0.4-0.1-0.8-0.2-1.2-0.2c-0.4,0-0.9,0.1-1.2,0.2c-0.4,0.1-0.7,0.4-0.9,0.6
				c-0.3,0.3-0.5,0.6-0.6,1s-0.2,0.9-0.2,1.4c0,0.5,0.1,1,0.2,1.4s0.3,0.7,0.6,1c0.3,0.3,0.6,0.5,0.9,0.6c0.4,0.1,0.8,0.2,1.2,0.2
				c0.4,0,0.9-0.1,1.2-0.2s0.7-0.4,0.9-0.6s0.4-0.6,0.6-1S251.8,202.9,251.8,202.4z"/>
		</g>
		<g id="XMLID_130_">
			<path id="XMLID_259_" class="st1" d="M114,250.1h-1.1c-0.1,0-0.2,0-0.3-0.1s-0.1-0.1-0.2-0.2l-0.7-1.9h-3.8l-0.7,1.9
				c0,0.1-0.1,0.2-0.2,0.2c-0.1,0.1-0.2,0.1-0.3,0.1h-1.1l3.5-8.8h1.4L114,250.1z M108.3,246.8h3l-1.2-3.2c0-0.1-0.1-0.3-0.1-0.4
				c-0.1-0.2-0.1-0.3-0.1-0.5c0,0.2-0.1,0.4-0.1,0.5s-0.1,0.3-0.1,0.4L108.3,246.8z"/>
			<path id="XMLID_262_" class="st1" d="M121.1,241.3v0.5c0,0.1,0,0.2,0,0.2c0,0.1-0.1,0.1-0.1,0.2l-4.7,6.6h4.8v1.1h-6.6v-0.6
				c0-0.1,0-0.1,0-0.2s0.1-0.1,0.1-0.2l4.7-6.6h-4.6v-1.1L121.1,241.3L121.1,241.3z"/>
		</g>
		<g id="XMLID_129_">
			<path id="XMLID_255_" class="st1" d="M147.5,241.3c0,0,0.1,0,0.1,0s0.1,0,0.1,0.1c0,0,0.1,0.1,0.1,0.1l4.8,6.2c0-0.1,0-0.3,0-0.4
				c0-0.1,0-0.2,0-0.3v-5.7h1.2v8.8h-0.7c-0.1,0-0.2,0-0.3-0.1s-0.1-0.1-0.2-0.2l-4.8-6.2c0,0.1,0,0.2,0,0.4c0,0.1,0,0.2,0,0.3v5.8
				h-1.3v-8.8h0.7C147.4,241.3,147.5,241.3,147.5,241.3z"/>
			<path id="XMLID_257_" class="st1" d="M160.3,247c0.1,0.1,0.1,0.3,0.2,0.4c0-0.1,0.1-0.3,0.2-0.4c0.1-0.1,0.1-0.3,0.2-0.4l2.8-5.1
				c0.1-0.1,0.1-0.2,0.2-0.2c0.1,0,0.2,0,0.3,0h1.1v8.8h-1.3v-6c0-0.1,0-0.2,0-0.3c0-0.1,0-0.2,0-0.3l-2.8,5.2
				c-0.1,0.2-0.3,0.3-0.5,0.3h-0.2c-0.2,0-0.4-0.1-0.5-0.3l-2.9-5.2c0,0.1,0,0.2,0,0.4c0,0.1,0,0.2,0,0.3v6h-1.3v-8.8h1.1
				c0.1,0,0.2,0,0.3,0s0.1,0.1,0.2,0.2l2.8,5.1C160.2,246.8,160.2,246.9,160.3,247z"/>
		</g>
		<g id="XMLID_128_">
			<path id="XMLID_251_" class="st1" d="M194.9,245.1h0.4c0.2,0,0.3,0,0.4-0.1c0.1,0,0.2-0.1,0.3-0.2l2.7-3.2
				c0.1-0.1,0.2-0.2,0.3-0.2c0.1,0,0.2-0.1,0.4-0.1h1.2l-3.1,3.7c-0.1,0.1-0.2,0.2-0.2,0.3s-0.2,0.1-0.3,0.2c0.1,0,0.2,0.1,0.3,0.2
				c0.1,0.1,0.2,0.2,0.3,0.3l3.2,4.1h-1.2c-0.1,0-0.2,0-0.2,0c-0.1,0-0.1,0-0.2-0.1c0,0-0.1-0.1-0.1-0.1c0,0-0.1-0.1-0.1-0.1
				l-2.7-3.3c0-0.1-0.1-0.1-0.1-0.1s-0.1-0.1-0.1-0.1c-0.1,0-0.1,0-0.2-0.1c-0.1,0-0.1,0-0.2,0h-0.5v3.9h-1.4v-8.8h1.4L194.9,245.1
				L194.9,245.1z"/>
			<path id="XMLID_253_" class="st1" d="M206.3,242.8c0,0.1-0.1,0.1-0.1,0.2c0,0-0.1,0.1-0.2,0.1c-0.1,0-0.2,0-0.3-0.1
				s-0.2-0.1-0.4-0.2c-0.1-0.1-0.3-0.2-0.5-0.2c-0.2-0.1-0.4-0.1-0.7-0.1c-0.2,0-0.5,0-0.6,0.1s-0.3,0.1-0.5,0.3
				c-0.1,0.1-0.2,0.2-0.3,0.4s-0.1,0.3-0.1,0.5c0,0.2,0.1,0.4,0.2,0.6s0.3,0.3,0.5,0.4c0.2,0.1,0.4,0.2,0.7,0.3
				c0.2,0.1,0.5,0.2,0.8,0.3c0.3,0.1,0.5,0.2,0.8,0.3c0.2,0.1,0.5,0.3,0.7,0.4c0.2,0.2,0.3,0.4,0.5,0.6c0.1,0.3,0.2,0.6,0.2,0.9
				c0,0.4-0.1,0.8-0.2,1.1s-0.3,0.6-0.6,0.9s-0.6,0.5-0.9,0.6s-0.8,0.2-1.3,0.2c-0.3,0-0.6,0-0.8-0.1s-0.5-0.1-0.8-0.2
				s-0.5-0.2-0.7-0.4s-0.4-0.3-0.6-0.5l0.4-0.7c0-0.1,0.1-0.1,0.1-0.1c0.1,0,0.1,0,0.2,0c0.1,0,0.2,0,0.3,0.1
				c0.1,0.1,0.3,0.2,0.4,0.3s0.4,0.2,0.6,0.3c0.2,0.1,0.5,0.1,0.8,0.1c0.5,0,0.9-0.1,1.2-0.4c0.3-0.3,0.4-0.6,0.4-1
				c0-0.2-0.1-0.4-0.2-0.6s-0.3-0.3-0.5-0.4c-0.2-0.1-0.4-0.2-0.7-0.3c-0.2-0.1-0.5-0.2-0.8-0.2c-0.3-0.1-0.5-0.2-0.8-0.3
				c-0.2-0.1-0.5-0.3-0.7-0.4s-0.3-0.4-0.5-0.7s-0.2-0.6-0.2-1c0-0.3,0.1-0.6,0.2-0.9c0.1-0.3,0.3-0.6,0.5-0.8
				c0.2-0.2,0.5-0.4,0.9-0.6s0.7-0.2,1.2-0.2c0.5,0,1,0.1,1.4,0.2c0.4,0.2,0.8,0.4,1.1,0.7L206.3,242.8z"/>
		</g>
		<g id="XMLID_127_">
			<path id="XMLID_196_" class="st1" d="M243.5,250.1h-1.1c-0.1,0-0.2,0-0.3-0.1s-0.1-0.1-0.2-0.2l-0.7-1.9h-3.8l-0.7,1.9
				c0,0.1-0.1,0.2-0.2,0.2c-0.1,0.1-0.2,0.1-0.3,0.1h-1.1l3.5-8.8h1.4L243.5,250.1z M237.8,246.8h3l-1.2-3.2c0-0.1-0.1-0.3-0.1-0.4
				c-0.1-0.2-0.1-0.3-0.1-0.5c0,0.2-0.1,0.4-0.1,0.5s-0.1,0.3-0.1,0.4L237.8,246.8z"/>
			<path id="XMLID_199_" class="st1" d="M246.1,246.5v3.5h-1.4v-8.8h2.6c0.6,0,1.1,0.1,1.5,0.2c0.4,0.1,0.8,0.3,1,0.5
				c0.3,0.2,0.5,0.5,0.6,0.8c0.1,0.3,0.2,0.6,0.2,1c0,0.3,0,0.6-0.1,0.9c-0.1,0.3-0.2,0.5-0.4,0.7c-0.2,0.2-0.4,0.4-0.6,0.6
				s-0.5,0.3-0.9,0.4c0.2,0.1,0.3,0.3,0.5,0.4l2.4,3.3H250c-0.3,0-0.4-0.1-0.5-0.3l-2-3c-0.1-0.1-0.1-0.2-0.2-0.2
				c-0.1,0-0.2-0.1-0.4-0.1L246.1,246.5L246.1,246.5z M246.1,245.5h1.1c0.3,0,0.6,0,0.9-0.1c0.2-0.1,0.4-0.2,0.6-0.3
				s0.3-0.3,0.4-0.5c0.1-0.2,0.1-0.4,0.1-0.7c0-0.5-0.2-0.8-0.5-1.1s-0.8-0.4-1.4-0.4h-1.2L246.1,245.5L246.1,245.5z"/>
		</g>
		<g id="XMLID_114_">
			<path id="XMLID_190_" class="st1" d="M200.1,289c0,0.6-0.1,1.2-0.3,1.8s-0.5,1-0.9,1.4c-0.4,0.4-0.8,0.7-1.4,0.9
				c-0.5,0.2-1.1,0.3-1.8,0.3c-0.7,0-1.2-0.1-1.8-0.3c-0.5-0.2-1-0.5-1.4-0.9c-0.4-0.4-0.7-0.9-0.9-1.4s-0.3-1.1-0.3-1.8
				s0.1-1.2,0.3-1.8c0.2-0.5,0.5-1,0.9-1.4c0.4-0.4,0.8-0.7,1.4-0.9c0.5-0.2,1.1-0.3,1.8-0.3c0.7,0,1.3,0.1,1.8,0.3
				c0.5,0.2,1,0.5,1.4,0.9c0.4,0.4,0.7,0.9,0.9,1.4C200,287.7,200.1,288.3,200.1,289z M198.7,289c0-0.5-0.1-1-0.2-1.4
				c-0.1-0.4-0.3-0.7-0.6-1c-0.3-0.3-0.6-0.5-0.9-0.6s-0.8-0.2-1.2-0.2c-0.4,0-0.9,0.1-1.2,0.2c-0.4,0.1-0.7,0.4-0.9,0.6
				c-0.3,0.3-0.5,0.6-0.6,1s-0.2,0.9-0.2,1.4c0,0.5,0.1,1,0.2,1.4s0.3,0.7,0.6,1c0.3,0.3,0.6,0.5,0.9,0.6s0.8,0.2,1.2,0.2
				c0.4,0,0.9-0.1,1.2-0.2s0.7-0.4,0.9-0.6s0.4-0.6,0.6-1C198.6,289.9,198.7,289.5,198.7,289z"/>
			<path id="XMLID_194_" class="st1" d="M203.1,288.3h0.4c0.2,0,0.3,0,0.4-0.1c0.1,0,0.2-0.1,0.3-0.2l2.7-3.2
				c0.1-0.1,0.2-0.2,0.3-0.2c0.1,0,0.2-0.1,0.4-0.1h1.2l-3.1,3.7c-0.1,0.1-0.2,0.2-0.2,0.3s-0.2,0.1-0.3,0.2c0.1,0,0.2,0.1,0.3,0.2
				c0.1,0.1,0.2,0.2,0.3,0.3l3.2,4.1h-1.2c-0.1,0-0.2,0-0.2,0s-0.1,0-0.2-0.1c0,0-0.1-0.1-0.1-0.1c0,0-0.1-0.1-0.1-0.1l-2.7-3.3
				c0-0.1-0.1-0.1-0.1-0.1s-0.1-0.1-0.1-0.1c-0.1,0-0.1,0-0.2-0.1c-0.1,0-0.1,0-0.2,0h-0.5v3.9h-1.4v-8.8h1.4L203.1,288.3
				L203.1,288.3z"/>
		</g>
		<g id="XMLID_113_">
			<path id="XMLID_185_" class="st1" d="M238.4,292.2h3.6v1.2H237v-8.8h1.4V292.2z"/>
			<path id="XMLID_187_" class="st1" d="M250.4,293.3h-1.1c-0.1,0-0.2,0-0.3-0.1s-0.1-0.1-0.2-0.2l-0.7-1.9h-3.8l-0.7,1.9
				c0,0.1-0.1,0.2-0.2,0.2c-0.1,0.1-0.2,0.1-0.3,0.1h-1.1l3.5-8.8h1.4L250.4,293.3z M244.7,290.1h3l-1.2-3.2c0-0.1-0.1-0.3-0.1-0.4
				c-0.1-0.2-0.1-0.3-0.1-0.5c0,0.2-0.1,0.4-0.1,0.5s-0.1,0.3-0.1,0.4L244.7,290.1z"/>
		</g>
		<g id="XMLID_104_">
			<path id="XMLID_181_" class="st1" d="M29,336.6h-1.4v-3.9h-4.4v3.9h-1.4v-8.8h1.4v3.8h4.4v-3.8H29V336.6z"/>
			<path id="XMLID_183_" class="st1" d="M32.6,336.6h-1.4v-8.8h1.4V336.6z"/>
		</g>
		<g id="XMLID_100_">
			<path id="XMLID_175_" class="st1" d="M199.4,327.9v1.2h-2.7v7.6h-1.4v-7.6h-2.7v-1.2H199.4z"/>
			<path id="XMLID_179_" class="st1" d="M202.5,332.1l-2.8-4.3h1.4c0.1,0,0.2,0,0.2,0c0,0,0.1,0.1,0.1,0.1l2.1,3.4
				c0-0.1,0-0.1,0.1-0.2c0,0,0-0.1,0.1-0.2l2-3c0-0.1,0.1-0.1,0.1-0.2c0,0,0.1-0.1,0.2-0.1h1.4l-2.9,4.2l3,4.6H206
				c-0.1,0-0.2,0-0.2-0.1s-0.1-0.1-0.1-0.2l-2.2-3.5c0,0,0,0.1-0.1,0.1c0,0,0,0.1-0.1,0.1l-2.1,3.2c0,0.1-0.1,0.1-0.1,0.2
				s-0.1,0.1-0.2,0.1h-1.3L202.5,332.1z"/>
		</g>
		<g id="XMLID_191_">
			<path id="XMLID_160_" class="st1" d="M499,31.6c0.1,0.1,0.1,0.3,0.2,0.4c0-0.1,0.1-0.3,0.2-0.4c0.1-0.1,0.1-0.3,0.2-0.4l2.8-5.1
				c0.1-0.1,0.1-0.2,0.2-0.2c0.1,0,0.2,0,0.3,0h1.1v8.8h-1.3v-6c0-0.1,0-0.2,0-0.3c0-0.1,0-0.2,0-0.3l-2.8,5.2
				c-0.1,0.2-0.3,0.3-0.5,0.3H499c-0.2,0-0.4-0.1-0.5-0.3l-2.9-5.2c0,0.1,0,0.2,0,0.4s0,0.2,0,0.3v6h-1.3v-8.8h1.1
				c0.1,0,0.2,0,0.3,0c0.1,0,0.1,0.1,0.2,0.2l2.8,5.1C498.9,31.3,498.9,31.5,499,31.6z"/>
			<path id="XMLID_162_" class="st1" d="M511.3,25.9V27h-4v2.6h3.2v1.1h-3.2v2.7h4l0,1.2h-5.5v-8.8L511.3,25.9L511.3,25.9z"/>
		</g>
		<g id="XMLID_178_">
			<path id="XMLID_146_" class="st1" d="M452.8,69.2h1.1c0.1,0,0.2,0,0.3,0.1c0.1,0.1,0.1,0.1,0.2,0.2l2.3,5.7
				c0.1,0.2,0.1,0.3,0.2,0.5c0.1,0.2,0.1,0.4,0.2,0.6c0-0.2,0.1-0.4,0.1-0.6c0.1-0.2,0.1-0.4,0.2-0.5l2.3-5.7c0-0.1,0.1-0.2,0.2-0.2
				s0.2-0.1,0.3-0.1h1.1l-3.6,8.8h-1.3L452.8,69.2z"/>
			<path id="XMLID_148_" class="st1" d="M468.1,69.2v1.2h-2.7v7.6h-1.4v-7.6h-2.7v-1.2H468.1z"/>
		</g>
		<g id="XMLID_177_">
			<path id="XMLID_132_" class="st1" d="M495.3,69.2c0,0,0.1,0,0.1,0c0,0,0.1,0,0.1,0.1s0.1,0.1,0.1,0.1l4.8,6.2c0-0.1,0-0.3,0-0.4
				s0-0.2,0-0.3v-5.7h1.2v8.8h-0.7c-0.1,0-0.2,0-0.3-0.1c-0.1,0-0.1-0.1-0.2-0.2l-4.8-6.2c0,0.1,0,0.2,0,0.3s0,0.2,0,0.3v5.8h-1.3
				v-8.8h0.7C495.2,69.2,495.2,69.2,495.3,69.2z"/>
			<path id="XMLID_134_" class="st1" d="M510.8,77.9h-1.4V74H505v3.9h-1.4v-8.8h1.4V73h4.4v-3.8h1.4V77.9z"/>
		</g>
		<g id="XMLID_169_">
			<path id="XMLID_120_" class="st1" d="M238.4,118.1c0.1,0.1,0.1,0.3,0.2,0.4c0-0.1,0.1-0.3,0.2-0.4c0.1-0.1,0.1-0.3,0.2-0.4
				l2.8-5.1c0.1-0.1,0.1-0.2,0.2-0.2s0.2,0,0.3,0h1.1v8.8H242v-6c0-0.1,0-0.2,0-0.3c0-0.1,0-0.2,0-0.3l-2.8,5.2
				c-0.1,0.2-0.3,0.3-0.5,0.3h-0.2c-0.2,0-0.4-0.1-0.5-0.3l-2.9-5.2c0,0.1,0,0.2,0,0.4c0,0.1,0,0.2,0,0.3v6h-1.3v-8.8h1.1
				c0.1,0,0.2,0,0.3,0c0.1,0,0.1,0.1,0.2,0.2l2.8,5.1C238.3,117.9,238.4,118,238.4,118.1z"/>
			<path id="XMLID_122_" class="st1" d="M246.1,112.5c0,0,0.1,0,0.1,0s0.1,0,0.1,0.1c0,0,0.1,0.1,0.1,0.1l4.8,6.2c0-0.1,0-0.3,0-0.4
				c0-0.1,0-0.2,0-0.3v-5.7h1.2v8.8h-0.7c-0.1,0-0.2,0-0.3-0.1s-0.1-0.1-0.2-0.2l-4.8-6.2c0,0.1,0,0.2,0,0.3s0,0.2,0,0.3v5.8h-1.3
				v-8.8h0.7C246.1,112.5,246.1,112.5,246.1,112.5z"/>
		</g>
		<g id="XMLID_168_">
			<path id="XMLID_116_" class="st1" d="M284.6,121.2h-1.4v-8.8h1.4V121.2z"/>
			<path id="XMLID_118_" class="st1" d="M288.2,120h3.6v1.2h-5.1v-8.8h1.4V120z"/>
		</g>
		<g id="XMLID_167_">
			<path id="XMLID_107_" class="st1" d="M321.6,112.5h1.2c0.1,0,0.2,0,0.3,0.1s0.1,0.1,0.2,0.2l1.6,5.6c0,0.1,0.1,0.3,0.1,0.4
				s0.1,0.3,0.1,0.4c0-0.2,0.1-0.3,0.1-0.4s0.1-0.3,0.1-0.4l1.9-5.6c0-0.1,0.1-0.2,0.2-0.2c0.1-0.1,0.2-0.1,0.3-0.1h0.4
				c0.1,0,0.2,0,0.3,0.1s0.1,0.1,0.2,0.2l1.9,5.6c0,0.1,0.1,0.2,0.1,0.4c0,0.1,0.1,0.3,0.1,0.4c0-0.2,0.1-0.3,0.1-0.4
				s0.1-0.3,0.1-0.4l1.6-5.6c0-0.1,0.1-0.2,0.2-0.2c0.1-0.1,0.2-0.1,0.3-0.1h1.1l-2.7,8.8H330l-2.1-6.3c0-0.1,0-0.1-0.1-0.2
				c0-0.1,0-0.2-0.1-0.3c0,0.1,0,0.2-0.1,0.3s0,0.2-0.1,0.2l-2.1,6.3h-1.3L321.6,112.5z"/>
			<path id="XMLID_109_" class="st1" d="M336.7,121.2h-1.4v-8.8h1.4V121.2z"/>
		</g>
		<g id="XMLID_166_">
			<path id="XMLID_102_" class="st1" d="M371.1,118.1c0.1,0.1,0.1,0.3,0.2,0.4c0-0.1,0.1-0.3,0.2-0.4c0.1-0.1,0.1-0.3,0.2-0.4
				l2.8-5.1c0.1-0.1,0.1-0.2,0.2-0.2c0.1,0,0.2,0,0.3,0h1.1v8.8h-1.3v-6c0-0.1,0-0.2,0-0.3c0-0.1,0-0.2,0-0.3l-2.8,5.2
				c-0.1,0.2-0.3,0.3-0.5,0.3h-0.2c-0.2,0-0.4-0.1-0.5-0.3l-2.9-5.2c0,0.1,0,0.2,0,0.4s0,0.2,0,0.3v6h-1.3v-8.8h1.1
				c0.1,0,0.2,0,0.3,0c0.1,0,0.1,0.1,0.2,0.2l2.8,5.1C371,117.9,371,118,371.1,118.1z"/>
			<path id="XMLID_105_" class="st1" d="M379.4,121.2h-1.4v-8.8h1.4V121.2z"/>
		</g>
		<g id="XMLID_165_">
			<path id="XMLID_97_" class="st1" d="M410.4,112.5c0,0,0.1,0,0.1,0c0,0,0.1,0,0.1,0.1s0.1,0.1,0.1,0.1l4.8,6.2c0-0.1,0-0.3,0-0.4
				s0-0.2,0-0.3v-5.7h1.2v8.8H416c-0.1,0-0.2,0-0.3-0.1c-0.1,0-0.1-0.1-0.2-0.2l-4.8-6.2c0,0.1,0,0.2,0,0.3s0,0.2,0,0.3v5.8h-1.3
				v-8.8h0.7C410.3,112.5,410.3,112.5,410.4,112.5z"/>
			<path id="XMLID_99_" class="st1" d="M422.2,117.8v3.4h-1.4v-3.4l-3.2-5.3h1.2c0.1,0,0.2,0,0.3,0.1c0.1,0.1,0.1,0.1,0.2,0.2
				l1.8,3.1c0.1,0.2,0.2,0.3,0.2,0.4c0.1,0.1,0.1,0.3,0.2,0.4c0-0.1,0.1-0.3,0.2-0.4c0.1-0.1,0.1-0.3,0.2-0.4l1.8-3.1
				c0-0.1,0.1-0.2,0.2-0.2s0.2-0.1,0.3-0.1h1.3L422.2,117.8z"/>
		</g>
		<g id="XMLID_164_">
			<path id="XMLID_91_" class="st1" d="M457.3,117.7v3.5h-1.4v-8.8h2.6c0.6,0,1.1,0.1,1.5,0.2c0.4,0.1,0.8,0.3,1,0.5
				c0.3,0.2,0.5,0.5,0.6,0.8c0.1,0.3,0.2,0.6,0.2,1c0,0.3,0,0.6-0.1,0.9c-0.1,0.3-0.2,0.5-0.4,0.7c-0.2,0.2-0.4,0.4-0.6,0.6
				c-0.3,0.2-0.5,0.3-0.9,0.4c0.2,0.1,0.3,0.3,0.5,0.4l2.4,3.3h-1.3c-0.3,0-0.4-0.1-0.5-0.3l-2-3c-0.1-0.1-0.1-0.2-0.2-0.2
				c-0.1,0-0.2-0.1-0.4-0.1L457.3,117.7L457.3,117.7z M457.3,116.7h1.1c0.3,0,0.6,0,0.9-0.1s0.4-0.2,0.6-0.3s0.3-0.3,0.4-0.5
				s0.1-0.4,0.1-0.7c0-0.5-0.2-0.8-0.5-1.1c-0.3-0.3-0.8-0.4-1.4-0.4h-1.2L457.3,116.7L457.3,116.7z"/>
			<path id="XMLID_94_" class="st1" d="M465.2,121.2h-1.4v-8.8h1.4V121.2z"/>
		</g>
		<g id="XMLID_163_">
			<path id="XMLID_86_" class="st1" d="M498.3,118.1c0.1,0.1,0.1,0.3,0.2,0.4c0-0.1,0.1-0.3,0.2-0.4c0.1-0.1,0.1-0.3,0.2-0.4
				l2.8-5.1c0.1-0.1,0.1-0.2,0.2-0.2c0.1,0,0.2,0,0.3,0h1.1v8.8h-1.3v-6c0-0.1,0-0.2,0-0.3c0-0.1,0-0.2,0-0.3l-2.8,5.2
				c-0.1,0.2-0.3,0.3-0.5,0.3h-0.2c-0.2,0-0.4-0.1-0.5-0.3l-2.9-5.2c0,0.1,0,0.2,0,0.4s0,0.2,0,0.3v6h-1.3v-8.8h1.1
				c0.1,0,0.2,0,0.3,0c0.1,0,0.1,0.1,0.2,0.2l2.8,5.1C498.2,117.9,498.2,118,498.3,118.1z"/>
			<path id="XMLID_88_" class="st1" d="M512.5,121.2h-1.1c-0.1,0-0.2,0-0.3-0.1c-0.1-0.1-0.1-0.1-0.2-0.2l-0.7-1.9h-3.8l-0.7,1.9
				c0,0.1-0.1,0.2-0.2,0.2s-0.2,0.1-0.3,0.1h-1.1l3.5-8.8h1.4L512.5,121.2z M506.8,117.9h3l-1.2-3.2c0-0.1-0.1-0.3-0.1-0.4
				c-0.1-0.2-0.1-0.3-0.1-0.5c0,0.2-0.1,0.4-0.1,0.5s-0.1,0.3-0.1,0.4L506.8,117.9z"/>
		</g>
		<g id="XMLID_154_">
			<path id="XMLID_82_" class="st1" d="M283.1,163.5h-1.4v-8.8h1.4V163.5z"/>
			<path id="XMLID_84_" class="st1" d="M286.2,154.7c0,0,0.1,0,0.1,0s0.1,0,0.1,0.1c0,0,0.1,0.1,0.1,0.1l4.8,6.2c0-0.1,0-0.3,0-0.4
				c0-0.1,0-0.2,0-0.3v-5.7h1.2v8.8h-0.7c-0.1,0-0.2,0-0.3-0.1s-0.1-0.1-0.2-0.2l-4.8-6.2c0,0.1,0,0.2,0,0.4c0,0.1,0,0.2,0,0.3v5.8
				h-1.3v-8.8h0.7C286.1,154.7,286.1,154.7,286.2,154.7z"/>
		</g>
		<g id="XMLID_153_">
			<path id="XMLID_77_" class="st1" d="M329.3,159.1c0,0.6-0.1,1.2-0.3,1.8s-0.5,1-0.9,1.4c-0.4,0.4-0.8,0.7-1.4,0.9
				c-0.5,0.2-1.1,0.3-1.8,0.3c-0.7,0-1.2-0.1-1.8-0.3c-0.5-0.2-1-0.5-1.4-0.9c-0.4-0.4-0.7-0.9-0.9-1.4s-0.3-1.1-0.3-1.8
				s0.1-1.2,0.3-1.8c0.2-0.5,0.5-1,0.9-1.4c0.4-0.4,0.8-0.7,1.4-0.9s1.1-0.3,1.8-0.3c0.7,0,1.3,0.1,1.8,0.3s1,0.5,1.4,0.9
				c0.4,0.4,0.7,0.9,0.9,1.4C329.2,157.9,329.3,158.5,329.3,159.1z M327.8,159.1c0-0.5-0.1-1-0.2-1.4s-0.3-0.7-0.6-1
				c-0.3-0.3-0.6-0.5-0.9-0.6c-0.4-0.1-0.8-0.2-1.2-0.2c-0.4,0-0.9,0.1-1.2,0.2c-0.4,0.1-0.7,0.4-0.9,0.6c-0.3,0.3-0.5,0.6-0.6,1
				c-0.1,0.4-0.2,0.9-0.2,1.4c0,0.5,0.1,1,0.2,1.4c0.1,0.4,0.3,0.7,0.6,1c0.3,0.3,0.6,0.5,0.9,0.6c0.4,0.1,0.8,0.2,1.2,0.2
				c0.5,0,0.9-0.1,1.2-0.2s0.7-0.4,0.9-0.6c0.3-0.3,0.4-0.6,0.6-1S327.8,159.6,327.8,159.1z"/>
			<path id="XMLID_80_" class="st1" d="M338.1,163.5h-1.4v-3.9h-4.4v3.9h-1.4v-8.8h1.4v3.8h4.4v-3.8h1.4V163.5z"/>
		</g>
		<g id="XMLID_152_">
			<path id="XMLID_71_" class="st1" d="M367.5,160.3v3.2h-1.4v-8.8h2.7c0.6,0,1.1,0.1,1.5,0.2s0.8,0.3,1,0.6
				c0.3,0.2,0.5,0.5,0.6,0.9s0.2,0.7,0.2,1.1c0,0.4-0.1,0.8-0.2,1.1c-0.1,0.3-0.4,0.6-0.6,0.9c-0.3,0.3-0.6,0.4-1,0.6
				c-0.4,0.1-0.9,0.2-1.5,0.2L367.5,160.3L367.5,160.3z M367.5,159.2h1.3c0.3,0,0.6,0,0.8-0.1s0.4-0.2,0.6-0.3s0.3-0.3,0.4-0.5
				s0.1-0.4,0.1-0.7c0-0.3,0-0.5-0.1-0.7s-0.2-0.4-0.4-0.5c-0.2-0.1-0.4-0.3-0.6-0.3c-0.2-0.1-0.5-0.1-0.8-0.1h-1.3V159.2z"/>
			<path id="XMLID_74_" class="st1" d="M380.9,163.5h-1.1c-0.1,0-0.2,0-0.3-0.1c-0.1-0.1-0.1-0.1-0.2-0.2l-0.7-1.9h-3.8l-0.7,1.9
				c0,0.1-0.1,0.2-0.2,0.2s-0.2,0.1-0.3,0.1h-1.1l3.5-8.8h1.4L380.9,163.5z M375.2,160.2h3L377,157c0-0.1-0.1-0.3-0.1-0.4
				c-0.1-0.2-0.1-0.3-0.1-0.5c0,0.2-0.1,0.4-0.1,0.5s-0.1,0.3-0.1,0.4L375.2,160.2z"/>
		</g>
		<g id="XMLID_151_">
			<path id="XMLID_67_" class="st1" d="M411.7,154.7c0,0,0.1,0,0.1,0c0,0,0.1,0,0.1,0.1s0.1,0.1,0.1,0.1l4.8,6.2c0-0.1,0-0.3,0-0.4
				s0-0.2,0-0.3v-5.7h1.2v8.8h-0.7c-0.1,0-0.2,0-0.3-0.1c-0.1,0-0.1-0.1-0.2-0.2l-4.8-6.2c0,0.1,0,0.2,0,0.4s0,0.2,0,0.3v5.8h-1.3
				v-8.8h0.7C411.6,154.7,411.6,154.7,411.7,154.7z"/>
			<path id="XMLID_69_" class="st1" d="M423.1,160.4c0,0.5-0.1,0.9-0.2,1.3c-0.1,0.4-0.3,0.7-0.5,1s-0.5,0.5-0.9,0.6
				c-0.4,0.1-0.8,0.2-1.2,0.2c-0.2,0-0.4,0-0.6,0c-0.2,0-0.4-0.1-0.6-0.1l0.1-0.9c0-0.1,0-0.1,0.1-0.2c0,0,0.1-0.1,0.2-0.1
				c0.1,0,0.2,0,0.3,0c0.1,0,0.3,0,0.5,0c0.2,0,0.5,0,0.7-0.1c0.2-0.1,0.4-0.2,0.5-0.3s0.2-0.4,0.3-0.6c0.1-0.2,0.1-0.5,0.1-0.9
				v-5.7h1.4L423.1,160.4L423.1,160.4z"/>
		</g>
		<g id="XMLID_150_">
			<path id="XMLID_63_" class="st1" d="M460.1,161.5c0.1,0,0.1,0,0.2,0.1l0.6,0.6c-0.4,0.4-0.8,0.8-1.3,1c-0.5,0.2-1.1,0.4-1.9,0.4
				c-0.6,0-1.2-0.1-1.7-0.3c-0.5-0.2-1-0.5-1.3-0.9c-0.4-0.4-0.6-0.9-0.8-1.4c-0.2-0.5-0.3-1.1-0.3-1.8s0.1-1.3,0.3-1.8
				c0.2-0.6,0.5-1,0.9-1.4c0.4-0.4,0.8-0.7,1.4-0.9s1.1-0.3,1.7-0.3c0.6,0,1.2,0.1,1.7,0.3s0.9,0.5,1.3,0.8l-0.5,0.7
				c0,0-0.1,0.1-0.1,0.1c0,0-0.1,0-0.2,0c-0.1,0-0.2,0-0.3-0.1s-0.2-0.2-0.4-0.3s-0.4-0.2-0.6-0.3c-0.2-0.1-0.5-0.1-0.9-0.1
				c-0.4,0-0.8,0.1-1.1,0.2s-0.6,0.4-0.9,0.6c-0.3,0.3-0.4,0.6-0.6,1s-0.2,0.9-0.2,1.4c0,0.5,0.1,1,0.2,1.4c0.1,0.4,0.3,0.7,0.6,1
				c0.3,0.3,0.6,0.5,0.9,0.6s0.7,0.2,1.1,0.2c0.2,0,0.5,0,0.7,0c0.2,0,0.4-0.1,0.5-0.1c0.2-0.1,0.3-0.1,0.5-0.2s0.3-0.2,0.4-0.3
				C459.9,161.6,460,161.5,460.1,161.5z"/>
			<path id="XMLID_65_" class="st1" d="M467.9,154.7v1.2h-2.7v7.6h-1.4v-7.6H461v-1.2H467.9z"/>
		</g>
		<g id="XMLID_140_">
			<path id="XMLID_58_" class="st1" d="M281.6,201.8h0.4c0.2,0,0.3,0,0.4-0.1c0.1,0,0.2-0.1,0.3-0.2l2.7-3.2
				c0.1-0.1,0.2-0.2,0.3-0.2c0.1,0,0.2-0.1,0.4-0.1h1.2l-3.1,3.7c-0.1,0.1-0.2,0.2-0.2,0.3s-0.2,0.1-0.3,0.2c0.1,0,0.2,0.1,0.3,0.2
				c0.1,0.1,0.2,0.2,0.3,0.3l3.2,4.1h-1.2c-0.1,0-0.2,0-0.2,0c-0.1,0-0.1,0-0.2-0.1c0,0-0.1-0.1-0.1-0.1c0,0-0.1-0.1-0.1-0.1
				l-2.7-3.3c0-0.1-0.1-0.1-0.1-0.1s-0.1-0.1-0.1-0.1s-0.1,0-0.2-0.1c-0.1,0-0.1,0-0.2,0h-0.5v3.9h-1.4V198h1.4L281.6,201.8
				L281.6,201.8z"/>
			<path id="XMLID_60_" class="st1" d="M291.9,203.3v3.4h-1.4v-3.4l-3.2-5.3h1.2c0.1,0,0.2,0,0.3,0.1s0.1,0.1,0.2,0.2l1.8,3.1
				c0.1,0.2,0.2,0.3,0.2,0.4s0.1,0.3,0.2,0.4c0-0.1,0.1-0.3,0.2-0.4s0.1-0.3,0.2-0.4l1.8-3.1c0-0.1,0.1-0.2,0.2-0.2
				c0.1-0.1,0.2-0.1,0.3-0.1h1.3L291.9,203.3z"/>
		</g>
		<g id="XMLID_139_">
			<path id="XMLID_54_" class="st1" d="M319.2,198h1.2c0.1,0,0.2,0,0.3,0.1c0.1,0.1,0.1,0.1,0.2,0.2l1.6,5.6c0,0.1,0.1,0.3,0.1,0.4
				s0.1,0.3,0.1,0.4c0-0.2,0.1-0.3,0.1-0.4s0.1-0.3,0.1-0.4l1.9-5.6c0-0.1,0.1-0.2,0.2-0.2c0.1-0.1,0.2-0.1,0.3-0.1h0.4
				c0.1,0,0.2,0,0.3,0.1s0.1,0.1,0.2,0.2l1.9,5.6c0,0.1,0.1,0.2,0.1,0.4c0,0.1,0.1,0.3,0.1,0.4c0-0.1,0.1-0.3,0.1-0.4
				s0.1-0.3,0.1-0.4l1.6-5.6c0-0.1,0.1-0.2,0.2-0.2c0.1-0.1,0.2-0.1,0.3-0.1h1.1l-2.7,8.8h-1.3l-2.1-6.3c0-0.1,0-0.1-0.1-0.2
				c0-0.1,0-0.2-0.1-0.3c0,0.1,0,0.2-0.1,0.3s0,0.2-0.1,0.2l-2.1,6.3h-1.3L319.2,198z"/>
			<path id="XMLID_56_" class="st1" d="M331.7,198h1.1c0.1,0,0.2,0,0.3,0.1c0.1,0.1,0.1,0.1,0.2,0.2l2.3,5.7
				c0.1,0.2,0.1,0.3,0.2,0.5c0.1,0.2,0.1,0.4,0.2,0.6c0-0.2,0.1-0.4,0.1-0.6c0.1-0.2,0.1-0.4,0.2-0.5l2.3-5.7c0-0.1,0.1-0.2,0.2-0.2
				s0.2-0.1,0.3-0.1h1.1l-3.6,8.8h-1.3L331.7,198z"/>
		</g>
		<g id="XMLID_138_">
			<path id="XMLID_49_" class="st1" d="M364.7,198h1.1c0.1,0,0.2,0,0.3,0.1c0.1,0.1,0.1,0.1,0.2,0.2l2.3,5.7
				c0.1,0.2,0.1,0.3,0.2,0.5c0.1,0.2,0.1,0.4,0.2,0.6c0-0.2,0.1-0.4,0.1-0.6c0.1-0.2,0.1-0.4,0.2-0.5l2.3-5.7c0-0.1,0.1-0.2,0.2-0.2
				s0.2-0.1,0.3-0.1h1.1l-3.6,8.8h-1.3L364.7,198z"/>
			<path id="XMLID_51_" class="st1" d="M381.3,206.8h-1.1c-0.1,0-0.2,0-0.3-0.1c-0.1-0.1-0.1-0.1-0.2-0.2l-0.7-1.9h-3.8l-0.7,1.9
				c0,0.1-0.1,0.2-0.2,0.2s-0.2,0.1-0.3,0.1h-1.1l3.5-8.8h1.4L381.3,206.8z M375.6,203.5h3l-1.2-3.2c0-0.1-0.1-0.3-0.1-0.4
				c-0.1-0.2-0.1-0.3-0.1-0.5c0,0.2-0.1,0.4-0.1,0.5s-0.1,0.3-0.1,0.4L375.6,203.5z"/>
		</g>
		<g id="XMLID_137_">
			<path id="XMLID_44_" class="st1" d="M412.2,203.7c0.1,0.1,0.1,0.3,0.2,0.4c0-0.1,0.1-0.3,0.2-0.4c0.1-0.1,0.1-0.3,0.2-0.4
				l2.8-5.1c0.1-0.1,0.1-0.2,0.2-0.2c0.1,0,0.2,0,0.3,0h1.1v8.8h-1.3v-6c0-0.1,0-0.2,0-0.3c0-0.1,0-0.2,0-0.3l-2.8,5.2
				c-0.1,0.2-0.3,0.3-0.5,0.3h-0.2c-0.2,0-0.4-0.1-0.5-0.3l-2.9-5.2c0,0.1,0,0.2,0,0.4s0,0.2,0,0.3v6h-1.3V198h1.1
				c0.1,0,0.2,0,0.3,0c0.1,0,0.1,0.1,0.2,0.2l2.8,5.1C412,203.5,412.1,203.6,412.2,203.7z"/>
			<path id="XMLID_46_" class="st1" d="M426.7,202.4c0,0.6-0.1,1.2-0.3,1.8s-0.5,1-0.9,1.4c-0.4,0.4-0.8,0.7-1.4,0.9
				c-0.5,0.2-1.1,0.3-1.8,0.3H419V198h3.3c0.7,0,1.3,0.1,1.8,0.3c0.5,0.2,1,0.5,1.4,0.9c0.4,0.4,0.7,0.8,0.9,1.4
				S426.7,201.7,426.7,202.4z M425.2,202.4c0-0.5-0.1-1-0.2-1.4c-0.1-0.4-0.3-0.7-0.6-1c-0.3-0.3-0.6-0.5-0.9-0.6
				c-0.4-0.1-0.8-0.2-1.2-0.2h-1.9v6.5h1.9c0.5,0,0.9-0.1,1.2-0.2c0.4-0.1,0.7-0.4,0.9-0.6c0.3-0.3,0.4-0.6,0.6-1
				C425.2,203.4,425.2,202.9,425.2,202.4z"/>
		</g>
		<g id="XMLID_136_">
			<path id="XMLID_39_" class="st1" d="M461,202.4c0,0.6-0.1,1.2-0.3,1.8s-0.5,1-0.9,1.4c-0.4,0.4-0.8,0.7-1.4,0.9
				c-0.5,0.2-1.1,0.3-1.8,0.3h-3.3V198h3.3c0.7,0,1.3,0.1,1.8,0.3c0.5,0.2,1,0.5,1.4,0.9c0.4,0.4,0.7,0.8,0.9,1.4
				S461,201.7,461,202.4z M459.6,202.4c0-0.5-0.1-1-0.2-1.4c-0.1-0.4-0.3-0.7-0.6-1c-0.3-0.3-0.6-0.5-0.9-0.6
				c-0.4-0.1-0.8-0.2-1.2-0.2h-1.9v6.5h1.9c0.5,0,0.9-0.1,1.2-0.2c0.4-0.1,0.7-0.4,0.9-0.6c0.3-0.3,0.4-0.6,0.6-1
				C459.5,203.4,459.6,202.9,459.6,202.4z"/>
			<path id="XMLID_42_" class="st1" d="M468.2,198v1.1h-4v2.6h3.2v1.1h-3.2v2.7h4l0,1.1h-5.5V198L468.2,198L468.2,198z"/>
		</g>
		<g id="XMLID_126_">
			<path id="XMLID_35_" class="st1" d="M285.9,241.3v1.2h-2.7v7.6h-1.4v-7.6H279v-1.2H285.9z"/>
			<path id="XMLID_37_" class="st1" d="M288,241.3c0,0,0.1,0,0.1,0s0.1,0,0.1,0.1c0,0,0.1,0.1,0.1,0.1l4.8,6.2c0-0.1,0-0.3,0-0.4
				c0-0.1,0-0.2,0-0.3v-5.7h1.2v8.8h-0.7c-0.1,0-0.2,0-0.3-0.1s-0.1-0.1-0.2-0.2l-4.8-6.2c0,0.1,0,0.2,0,0.4c0,0.1,0,0.2,0,0.3v5.8
				h-1.3v-8.8h0.7C287.9,241.3,287.9,241.3,288,241.3z"/>
		</g>
		<g id="XMLID_125_">
			<path id="XMLID_31_" class="st1" d="M322.9,241.3c0,0,0.1,0,0.1,0c0,0,0.1,0,0.1,0.1s0.1,0.1,0.1,0.1l4.8,6.2c0-0.1,0-0.3,0-0.4
				s0-0.2,0-0.3v-5.7h1.2v8.8h-0.7c-0.1,0-0.2,0-0.3-0.1c-0.1,0-0.1-0.1-0.2-0.2l-4.8-6.2c0,0.1,0,0.2,0,0.4s0,0.2,0,0.3v5.8H322
				v-8.8h0.7C322.8,241.3,322.9,241.3,322.9,241.3z"/>
			<path id="XMLID_33_" class="st1" d="M337.3,248.1c0.1,0,0.1,0,0.2,0.1l0.6,0.6c-0.4,0.4-0.8,0.8-1.3,1c-0.5,0.2-1.1,0.4-1.9,0.4
				c-0.6,0-1.2-0.1-1.7-0.3c-0.5-0.2-1-0.5-1.3-0.9c-0.4-0.4-0.6-0.9-0.8-1.4c-0.2-0.5-0.3-1.1-0.3-1.8s0.1-1.3,0.3-1.8
				c0.2-0.6,0.5-1,0.9-1.4c0.4-0.4,0.8-0.7,1.4-0.9s1.1-0.3,1.7-0.3c0.6,0,1.2,0.1,1.7,0.3s0.9,0.5,1.3,0.8l-0.5,0.7
				c0,0-0.1,0.1-0.1,0.1c0,0-0.1,0-0.2,0c-0.1,0-0.2,0-0.3-0.1s-0.2-0.2-0.4-0.3s-0.4-0.2-0.6-0.3c-0.2-0.1-0.5-0.1-0.9-0.1
				c-0.4,0-0.8,0.1-1.1,0.2s-0.6,0.4-0.9,0.6c-0.3,0.3-0.4,0.6-0.6,1s-0.2,0.9-0.2,1.4c0,0.5,0.1,1,0.2,1.4c0.1,0.4,0.3,0.7,0.6,1
				c0.3,0.3,0.6,0.5,0.9,0.6s0.7,0.2,1.1,0.2c0.2,0,0.5,0,0.7,0c0.2,0,0.4-0.1,0.5-0.1c0.2-0.1,0.3-0.1,0.5-0.2s0.3-0.2,0.4-0.3
				C337.1,248.1,337.2,248.1,337.3,248.1z"/>
		</g>
		<g id="XMLID_124_">
			<path id="XMLID_27_" class="st1" d="M371.3,242.8c0,0.1-0.1,0.1-0.1,0.2c0,0-0.1,0.1-0.2,0.1c-0.1,0-0.2,0-0.3-0.1
				c-0.1-0.1-0.2-0.1-0.4-0.2c-0.1-0.1-0.3-0.2-0.5-0.2s-0.4-0.1-0.7-0.1c-0.2,0-0.5,0-0.6,0.1s-0.3,0.1-0.5,0.3
				c-0.1,0.1-0.2,0.2-0.3,0.4c-0.1,0.1-0.1,0.3-0.1,0.5c0,0.2,0.1,0.4,0.2,0.6c0.1,0.1,0.3,0.3,0.5,0.4c0.2,0.1,0.4,0.2,0.7,0.3
				c0.2,0.1,0.5,0.2,0.8,0.3c0.3,0.1,0.5,0.2,0.8,0.3c0.2,0.1,0.5,0.3,0.7,0.4c0.2,0.2,0.3,0.4,0.5,0.6c0.1,0.3,0.2,0.6,0.2,0.9
				c0,0.4-0.1,0.8-0.2,1.1s-0.3,0.6-0.6,0.9s-0.6,0.5-0.9,0.6s-0.8,0.2-1.3,0.2c-0.3,0-0.6,0-0.8-0.1s-0.5-0.1-0.8-0.2
				c-0.2-0.1-0.5-0.2-0.7-0.4s-0.4-0.3-0.6-0.5l0.4-0.7c0-0.1,0.1-0.1,0.1-0.1c0.1,0,0.1,0,0.2,0c0.1,0,0.2,0,0.3,0.1
				c0.1,0.1,0.3,0.2,0.4,0.3s0.4,0.2,0.6,0.3c0.2,0.1,0.5,0.1,0.8,0.1c0.5,0,0.9-0.1,1.2-0.4c0.3-0.3,0.4-0.6,0.4-1
				c0-0.2-0.1-0.4-0.2-0.6c-0.1-0.2-0.3-0.3-0.5-0.4c-0.2-0.1-0.4-0.2-0.7-0.3c-0.2-0.1-0.5-0.2-0.8-0.2c-0.3-0.1-0.5-0.2-0.8-0.3
				c-0.2-0.1-0.5-0.3-0.7-0.4c-0.2-0.2-0.3-0.4-0.5-0.7s-0.2-0.6-0.2-1c0-0.3,0.1-0.6,0.2-0.9c0.1-0.3,0.3-0.6,0.5-0.8
				c0.2-0.2,0.5-0.4,0.9-0.6s0.7-0.2,1.2-0.2c0.5,0,1,0.1,1.4,0.2c0.4,0.2,0.8,0.4,1.1,0.7L371.3,242.8z"/>
			<path id="XMLID_29_" class="st1" d="M379.3,248.1c0.1,0,0.1,0,0.2,0.1l0.6,0.6c-0.4,0.4-0.8,0.8-1.3,1c-0.5,0.2-1.1,0.4-1.9,0.4
				c-0.6,0-1.2-0.1-1.7-0.3c-0.5-0.2-1-0.5-1.3-0.9c-0.4-0.4-0.6-0.9-0.8-1.4c-0.2-0.5-0.3-1.1-0.3-1.8s0.1-1.3,0.3-1.8
				c0.2-0.6,0.5-1,0.9-1.4c0.4-0.4,0.8-0.7,1.4-0.9s1.1-0.3,1.7-0.3c0.6,0,1.2,0.1,1.7,0.3s0.9,0.5,1.3,0.8l-0.5,0.7
				c0,0-0.1,0.1-0.1,0.1c0,0-0.1,0-0.2,0c-0.1,0-0.2,0-0.3-0.1s-0.2-0.2-0.4-0.3s-0.4-0.2-0.6-0.3c-0.2-0.1-0.5-0.1-0.9-0.1
				c-0.4,0-0.8,0.1-1.1,0.2s-0.6,0.4-0.9,0.6c-0.3,0.3-0.4,0.6-0.6,1s-0.2,0.9-0.2,1.4c0,0.5,0.1,1,0.2,1.4c0.1,0.4,0.3,0.7,0.6,1
				c0.3,0.3,0.6,0.5,0.9,0.6s0.7,0.2,1.1,0.2c0.2,0,0.5,0,0.7,0c0.2,0,0.4-0.1,0.5-0.1c0.2-0.1,0.3-0.1,0.5-0.2s0.3-0.2,0.4-0.3
				C379.1,248.1,379.2,248.1,379.3,248.1z"/>
		</g>
		<g id="XMLID_123_">
			<path id="XMLID_22_" class="st1" d="M416.9,245.7c0,0.6-0.1,1.2-0.3,1.8s-0.5,1-0.9,1.4c-0.4,0.4-0.8,0.7-1.4,0.9
				c-0.5,0.2-1.1,0.3-1.8,0.3h-3.3v-8.8h3.3c0.7,0,1.3,0.1,1.8,0.3c0.5,0.2,1,0.5,1.4,0.9c0.4,0.4,0.7,0.8,0.9,1.4
				S416.9,245,416.9,245.7z M415.4,245.7c0-0.5-0.1-1-0.2-1.4c-0.1-0.4-0.3-0.7-0.6-1c-0.3-0.3-0.6-0.5-0.9-0.6
				c-0.4-0.1-0.8-0.2-1.2-0.2h-1.9v6.5h1.9c0.5,0,0.9-0.1,1.2-0.2c0.4-0.1,0.7-0.4,0.9-0.6c0.3-0.3,0.4-0.6,0.6-1
				C415.4,246.6,415.4,246.2,415.4,245.7z"/>
			<path id="XMLID_25_" class="st1" d="M424.7,248.1c0.1,0,0.1,0,0.2,0.1l0.6,0.6c-0.4,0.4-0.8,0.8-1.3,1c-0.5,0.2-1.1,0.4-1.9,0.4
				c-0.6,0-1.2-0.1-1.7-0.3c-0.5-0.2-1-0.5-1.3-0.9c-0.4-0.4-0.6-0.9-0.8-1.4c-0.2-0.5-0.3-1.1-0.3-1.8s0.1-1.3,0.3-1.8
				c0.2-0.6,0.5-1,0.9-1.4c0.4-0.4,0.8-0.7,1.4-0.9s1.1-0.3,1.7-0.3c0.6,0,1.2,0.1,1.7,0.3s0.9,0.5,1.3,0.8l-0.5,0.7
				c0,0-0.1,0.1-0.1,0.1c0,0-0.1,0-0.2,0c-0.1,0-0.2,0-0.3-0.1s-0.2-0.2-0.4-0.3s-0.4-0.2-0.6-0.3c-0.2-0.1-0.5-0.1-0.9-0.1
				c-0.4,0-0.8,0.1-1.1,0.2s-0.6,0.4-0.9,0.6c-0.3,0.3-0.4,0.6-0.6,1s-0.2,0.9-0.2,1.4c0,0.5,0.1,1,0.2,1.4c0.1,0.4,0.3,0.7,0.6,1
				c0.3,0.3,0.6,0.5,0.9,0.6s0.7,0.2,1.1,0.2c0.2,0,0.5,0,0.7,0c0.2,0,0.4-0.1,0.5-0.1c0.2-0.1,0.3-0.1,0.5-0.2s0.3-0.2,0.4-0.3
				C424.5,248.1,424.6,248.1,424.7,248.1z"/>
		</g>
		<g id="XMLID_112_">
			<path id="XMLID_18_" class="st1" d="M283.7,290.3c0.1,0.1,0.1,0.3,0.2,0.4c0-0.1,0.1-0.3,0.2-0.4c0.1-0.1,0.1-0.3,0.2-0.4
				l2.8-5.1c0.1-0.1,0.1-0.2,0.2-0.2s0.2,0,0.3,0h1.1v8.8h-1.3v-6c0-0.1,0-0.2,0-0.3c0-0.1,0-0.2,0-0.3l-2.8,5.2
				c-0.1,0.2-0.3,0.3-0.5,0.3h-0.2c-0.2,0-0.4-0.1-0.5-0.3l-2.9-5.2c0,0.1,0,0.2,0,0.4c0,0.1,0,0.2,0,0.3v6h-1.3v-8.8h1.1
				c0.1,0,0.2,0,0.3,0s0.1,0.1,0.2,0.2l2.8,5.1C283.6,290,283.6,290.2,283.7,290.3z"/>
			<path id="XMLID_20_" class="st1" d="M295.1,286.1c0,0.1-0.1,0.1-0.1,0.2c0,0-0.1,0.1-0.2,0.1c-0.1,0-0.2,0-0.3-0.1
				s-0.2-0.1-0.4-0.2c-0.1-0.1-0.3-0.2-0.5-0.2s-0.4-0.1-0.7-0.1c-0.2,0-0.5,0-0.6,0.1s-0.3,0.1-0.5,0.3c-0.1,0.1-0.2,0.2-0.3,0.4
				c-0.1,0.1-0.1,0.3-0.1,0.5c0,0.2,0.1,0.4,0.2,0.6s0.3,0.3,0.5,0.4c0.2,0.1,0.4,0.2,0.7,0.3s0.5,0.2,0.8,0.3
				c0.3,0.1,0.5,0.2,0.8,0.3c0.2,0.1,0.5,0.3,0.7,0.4c0.2,0.2,0.3,0.4,0.5,0.6c0.1,0.3,0.2,0.6,0.2,0.9c0,0.4-0.1,0.8-0.2,1.1
				s-0.3,0.6-0.6,0.9s-0.6,0.5-0.9,0.6s-0.8,0.2-1.3,0.2c-0.3,0-0.6,0-0.8-0.1s-0.5-0.1-0.8-0.2s-0.5-0.2-0.7-0.4s-0.4-0.3-0.6-0.5
				l0.4-0.7c0-0.1,0.1-0.1,0.1-0.1c0.1,0,0.1,0,0.2,0c0.1,0,0.2,0,0.3,0.1c0.1,0.1,0.3,0.2,0.4,0.3s0.4,0.2,0.6,0.3s0.5,0.1,0.8,0.1
				c0.5,0,0.9-0.1,1.2-0.4c0.3-0.3,0.4-0.6,0.4-1c0-0.2-0.1-0.5-0.2-0.6c-0.1-0.2-0.3-0.3-0.5-0.4c-0.2-0.1-0.4-0.2-0.7-0.3
				c-0.2-0.1-0.5-0.2-0.8-0.2c-0.3-0.1-0.5-0.2-0.8-0.3c-0.2-0.1-0.5-0.3-0.7-0.4s-0.3-0.4-0.5-0.7s-0.2-0.6-0.2-1
				c0-0.3,0.1-0.6,0.2-0.9c0.1-0.3,0.3-0.6,0.5-0.8c0.2-0.2,0.5-0.4,0.9-0.6s0.7-0.2,1.2-0.2c0.5,0,1,0.1,1.4,0.2
				c0.4,0.2,0.8,0.4,1.1,0.7L295.1,286.1z"/>
		</g>
		<g id="XMLID_111_">
			<path id="XMLID_13_" class="st1" d="M330.6,293.3h-1.1c-0.1,0-0.2,0-0.3-0.1c-0.1-0.1-0.1-0.1-0.2-0.2l-0.7-1.9h-3.8l-0.7,1.9
				c0,0.1-0.1,0.2-0.2,0.2s-0.2,0.1-0.3,0.1h-1.1l3.5-8.8h1.4L330.6,293.3z M324.9,290.1h3l-1.2-3.2c0-0.1-0.1-0.3-0.1-0.4
				c-0.1-0.2-0.1-0.3-0.1-0.5c0,0.2-0.1,0.4-0.1,0.5s-0.1,0.3-0.1,0.4L324.9,290.1z"/>
			<path id="XMLID_16_" class="st1" d="M333.2,292.2h3.6v1.2h-5.1v-8.8h1.4V292.2z"/>
		</g>
		<g id="XMLID_110_">
			<path id="XMLID_8_" class="st1" d="M369.5,293.4c-0.7,0-1.4-0.1-1.9-0.3c-0.6-0.2-1.1-0.5-1.5-0.9c-0.4-0.4-0.7-0.9-0.9-1.4
				c-0.2-0.5-0.3-1.1-0.3-1.8c0-0.7,0.1-1.3,0.3-1.8s0.5-1,0.9-1.4c0.4-0.4,0.9-0.7,1.4-0.9s1.2-0.3,1.9-0.3c0.4,0,0.7,0,1,0.1
				c0.3,0.1,0.6,0.1,0.8,0.2c0.3,0.1,0.5,0.2,0.7,0.4c0.2,0.1,0.4,0.3,0.6,0.5l-0.4,0.7c-0.1,0.1-0.1,0.2-0.3,0.2s-0.2,0-0.3-0.1
				c-0.1-0.1-0.2-0.1-0.4-0.2s-0.3-0.1-0.5-0.2c-0.2-0.1-0.4-0.1-0.6-0.2c-0.2,0-0.5-0.1-0.8-0.1c-0.5,0-0.9,0.1-1.3,0.2
				c-0.4,0.2-0.7,0.4-1,0.7s-0.5,0.6-0.6,1c-0.1,0.4-0.2,0.9-0.2,1.3c0,0.5,0.1,1,0.2,1.4c0.1,0.4,0.4,0.8,0.6,1s0.6,0.5,1,0.7
				s0.8,0.2,1.3,0.2c0.4,0,0.7,0,1-0.1c0.3-0.1,0.6-0.2,0.8-0.3v-1.7h-1.2c-0.1,0-0.2,0-0.2-0.1s-0.1-0.1-0.1-0.2V289h2.8v3.5
				C371.7,293.1,370.7,293.4,369.5,293.4z"/>
			<path id="XMLID_10_" class="st1" d="M381.6,293.3h-1.1c-0.1,0-0.2,0-0.3-0.1c-0.1-0.1-0.1-0.1-0.2-0.2l-0.7-1.9h-3.8l-0.7,1.9
				c0,0.1-0.1,0.2-0.2,0.2s-0.2,0.1-0.3,0.1h-1.1l3.5-8.8h1.4L381.6,293.3z M375.9,290.1h3l-1.2-3.2c0-0.1-0.1-0.3-0.1-0.4
				c-0.1-0.2-0.1-0.3-0.1-0.5c0,0.2-0.1,0.4-0.1,0.5s-0.1,0.3-0.1,0.4L375.9,290.1z"/>
		</g>
		<g id="XMLID_95_">
			<path id="XMLID_4_" class="st1" d="M416.9,327.9v1.1h-4v2.8h3.4v1.1h-3.4v3.7h-1.4v-8.8L416.9,327.9L416.9,327.9z"/>
			<path id="XMLID_6_" class="st1" d="M419.6,335.4h3.6v1.2h-5.1v-8.8h1.4V335.4z"/>
		</g>
	</g>
</g>
</svg>
